<?xml version="1.0" encoding="utf-8"?>
<!-- Generator: Adobe Illustrator 24.0.0, SVG Export Plug-In . SVG Version: 6.00 Build 0)  -->
<svg version="1.1" id="Layer_1" xmlns="http://www.w3.org/2000/svg" xmlns:xlink="http://www.w3.org/1999/xlink" x="0px" y="0px"
	 viewBox="0 0 337.5 110.9" style="enable-background:new 0 0 337.5 110.9;" xml:space="preserve">
<style type="text/css">
	.st0{display:none;fill:url(#SVGID_1_);}
	.st1{fill:#FFFFFF;}
	.st2{fill:#FFFFFF;stroke:#FFFFFF;stroke-miterlimit:10;}
	.st3{clip-path:url(#SVGID_3_);}
</style>
<linearGradient id="SVGID_1_" gradientUnits="userSpaceOnUse" x1="23.448" y1="143.9996" x2="313.5084" y2="-32.7683">
	<stop  offset="0.1256" style="stop-color:#000000"/>
	<stop  offset="0.3137" style="stop-color:#000106"/>
	<stop  offset="0.566" style="stop-color:#000317"/>
	<stop  offset="0.8536" style="stop-color:#000733"/>
	<stop  offset="1" style="stop-color:#000A44"/>
</linearGradient>
<rect y="0" class="st0" width="337.5" height="110.9"/>
<g>
	<g>
		<g>
			<path class="st1" d="M134.7,45L134.7,45c-6.2,0-11.2,5-11.2,11.2v16.2c0,0.6,0.5,1.1,1.1,1.1l0,0c0.6,0,1.1-0.5,1.1-1.1V56.2
				c0-5,4-9,9-9l0,0c5,0,9,4,9,9v16.2c0,0.6,0.5,1.1,1.1,1.1l0,0c0.6,0,1.1-0.5,1.1-1.1V56.2C145.9,50,140.9,45,134.7,45z"/>
		</g>
		<g>
			<path class="st1" d="M317.8,43.8c-4.2,0-8,2.3-10.1,5.9c-2.1-3.6-5.9-5.9-10.1-5.9c-6.4,0-11.6,5.2-11.6,11.6v16.2
				c0,0.8,0.7,1.5,1.5,1.5s1.5-0.7,1.5-1.5V55.4c0-4.7,3.8-8.6,8.6-8.6c4.7,0,8.6,3.8,8.6,8.6v16.2c0,0.8,0.7,1.5,1.5,1.5l0,0l0,0
				l0,0c0.2,0,0.4,0,0.6-0.1c0.6-0.2,1-0.8,1-1.4V55.4c0-0.2,0-0.3,0-0.5c0.2-4.5,4-8.1,8.5-8.1c4.7,0,8.6,3.8,8.6,8.6v16.2
				c0,0.9,0.7,1.5,1.5,1.5s1.5-0.7,1.5-1.5V55.4C329.4,49,324.2,43.8,317.8,43.8z"/>
			<path class="st1" d="M327.9,73.2c-0.9,0-1.7-0.8-1.7-1.7V55.4c0-4.6-3.8-8.4-8.4-8.4c-4.5,0-8.1,3.5-8.4,7.9c0,0.2,0,0.3,0,0.5
				v16.1c0,0.7-0.4,1.3-1,1.6c-0.2,0.1-0.4,0.1-0.6,0.1h-0.1c-0.9,0-1.7-0.8-1.7-1.7V55.4c0-4.6-3.8-8.4-8.4-8.4s-8.4,3.8-8.4,8.4
				v16.2c0,0.9-0.7,1.7-1.7,1.7c-0.9,0-1.7-0.7-1.7-1.7V55.4c0-6.5,5.3-11.8,11.8-11.8c4.1,0,8,2.2,10.1,5.7c2.1-3.5,6-5.7,10.1-5.7
				c6.5,0,11.8,5.3,11.8,11.8v16.1C329.6,72.5,328.8,73.2,327.9,73.2z M297.6,46.7c4.8,0,8.7,3.9,8.7,8.7v16.2
				c0,0.8,0.6,1.4,1.4,1.4l0,0v0.1V73c0.2,0,0.3,0,0.5-0.1c0.5-0.2,0.9-0.7,0.9-1.3V55.4c0-0.2,0-0.3,0-0.5c0.3-4.6,4.1-8.2,8.7-8.2
				c4.8,0,8.7,3.9,8.7,8.7v16.2c0,0.8,0.6,1.4,1.4,1.4s1.4-0.6,1.4-1.4V55.4c0-6.3-5.1-11.5-11.5-11.5c-4.1,0-7.9,2.2-10,5.8
				l-0.1,0.2l-0.1-0.2c-2-3.6-5.9-5.8-10-5.8c-6.3,0-11.5,5.1-11.5,11.5v16.2c0,0.8,0.6,1.4,1.4,1.4s1.4-0.6,1.4-1.4V55.4
				C288.9,50.6,292.8,46.7,297.6,46.7z"/>
		</g>
		<g>
			<path class="st1" d="M167.3,73.6c-2.8,0-5.2-0.6-7.3-1.8c-2.1-1.2-3.8-2.8-5-5c-1.2-2.1-1.8-4.7-1.8-7.6c0-3.1,0.6-5.7,1.8-7.9
				s2.7-3.8,4.6-5c1.9-1.2,3.9-1.7,6-1.7c1.5,0,3,0.2,4.5,0.7s2.8,1.3,3.9,2.3c1.2,1,2.1,2.4,2.8,3.9c0.7,1.6,1.1,3.4,1.2,5.6
				c0,0.3-0.1,0.6-0.3,0.8s-0.5,0.4-0.8,0.4h-22.5l-0.3-2.1h22.2l-0.6,0.5v-1c-0.2-1.9-0.8-3.6-1.8-4.9c-1-1.3-2.3-2.3-3.8-3
				s-3-1-4.6-1c-1.1,0-2.3,0.2-3.5,0.7s-2.3,1.2-3.4,2.3c-1,1-1.9,2.3-2.5,3.8s-1,3.3-1,5.4c0,2.2,0.4,4.3,1.4,6.2
				c0.9,1.9,2.2,3.4,4,4.5s4,1.7,6.6,1.7c1.2,0,2.4-0.2,3.5-0.6s2.1-1,3-1.7s1.6-1.5,2.1-2.3c0.3-0.3,0.6-0.5,0.9-0.5
				c0.3,0,0.5,0.1,0.7,0.3c0.2,0.2,0.3,0.4,0.3,0.7c0,0.3-0.1,0.5-0.2,0.7c-1.1,1.5-2.6,2.8-4.4,3.9
				C171.4,73.1,169.4,73.6,167.3,73.6z"/>
			<path class="st1" d="M183.5,45c0.4,0,0.7,0.2,0.9,0.5l19.9,26.1c0.1,0.2,0.2,0.4,0.2,0.7c0,0.3-0.1,0.6-0.3,0.8
				c-0.2,0.2-0.5,0.3-0.7,0.3c-0.3,0-0.6-0.2-0.9-0.5l-19.9-26c-0.1-0.2-0.2-0.4-0.2-0.7s0.1-0.6,0.4-0.8
				C182.9,45.1,183.2,45,183.5,45z M183.5,73.3c-0.3,0-0.5-0.1-0.7-0.2c-0.2-0.2-0.3-0.4-0.3-0.8c0-0.3,0.1-0.5,0.2-0.7l9.6-12.5
				l1.3,1.7l-9.3,12.1C184.2,73.2,183.9,73.3,183.5,73.3z M203.5,45c0.4,0,0.6,0.1,0.8,0.3s0.2,0.4,0.2,0.7c0,0.1,0,0.2-0.1,0.4
				c-0.1,0.1-0.1,0.2-0.2,0.4l-9.6,12.9l-1.2-1.9l9.1-12.1C202.8,45.2,203.1,45,203.5,45z"/>
			<path class="st1" d="M209.5,68.6c-0.3-0.4-0.4-0.9-0.4-1.3s0.2-0.8,0.7-1c0.3-0.3,0.6-0.4,1-0.3c0.4,0,0.7,0.2,1.1,0.6
				c1,1.3,2.2,2.3,3.6,3.1c1.4,0.8,3.1,1.2,5,1.2c1,0,2-0.2,3.1-0.5c1-0.3,1.8-0.9,2.5-1.6s1-1.6,1-2.7s-0.3-2-1-2.7
				s-1.5-1.2-2.6-1.7c-1-0.4-2.2-0.8-3.4-1.1s-2.5-0.7-3.6-1.1c-1.2-0.4-2.2-1-3.1-1.6c-0.9-0.6-1.6-1.4-2.2-2.3
				c-0.5-0.9-0.8-2-0.8-3.4c0-1.5,0.4-2.9,1.2-4.1c0.8-1.2,2-2.1,3.4-2.8c1.5-0.7,3.1-1,4.9-1c1,0,2,0.1,3,0.4
				c1.1,0.2,2.1,0.6,3.1,1.2c1,0.6,1.9,1.3,2.8,2.3c0.3,0.3,0.5,0.7,0.5,1.1c0,0.4-0.2,0.8-0.6,1.2c-0.3,0.2-0.6,0.3-1,0.3
				s-0.7-0.2-1-0.5c-0.9-1-1.9-1.7-3.1-2.2c-1.2-0.5-2.5-0.7-3.9-0.7c-1.1,0-2.1,0.2-3,0.5s-1.7,0.8-2.3,1.5s-0.9,1.6-0.9,2.8
				c0.1,1.1,0.4,1.9,1.1,2.6c0.7,0.7,1.6,1.2,2.7,1.7c1.1,0.4,2.4,0.8,3.8,1.2c1.2,0.3,2.3,0.6,3.4,1c1.1,0.4,2,0.9,2.9,1.5
				c0.8,0.6,1.5,1.4,2,2.3c0.5,0.9,0.7,2.1,0.7,3.5c0,1.6-0.5,3-1.4,4.2s-2.1,2.1-3.6,2.7s-3.2,0.9-5,0.9c-2,0-3.9-0.4-5.8-1.2
				C212.6,71.7,210.9,70.4,209.5,68.6z"/>
			<path class="st1" d="M235.1,45H248c0.4,0,0.8,0.2,1.1,0.5s0.4,0.7,0.4,1.1c0,0.4-0.1,0.8-0.4,1.1c-0.3,0.3-0.7,0.4-1.1,0.4h-12.8
				c-0.4,0-0.8-0.2-1.1-0.5s-0.5-0.7-0.5-1.1c0-0.4,0.2-0.8,0.5-1.1C234.3,45.2,234.7,45,235.1,45z M240.8,37.3
				c0.5,0,0.9,0.2,1.2,0.5s0.5,0.7,0.5,1.2v27.7c0,1,0.1,1.8,0.4,2.3c0.3,0.5,0.6,0.9,1.1,1c0.4,0.2,0.9,0.2,1.3,0.2
				c0.3,0,0.6,0,0.8-0.1s0.5-0.1,0.8-0.1s0.6,0.1,0.9,0.4c0.2,0.3,0.4,0.6,0.4,1c0,0.5-0.3,0.9-0.9,1.3c-0.6,0.3-1.3,0.5-2.1,0.5
				c-0.3,0-0.8,0-1.5-0.1s-1.3-0.3-2-0.6c-0.7-0.3-1.3-1-1.8-1.8c-0.5-0.9-0.7-2.1-0.7-3.8v-28c0-0.4,0.2-0.8,0.5-1.2
				C239.9,37.4,240.3,37.3,240.8,37.3z"/>
			<path class="st1" d="M267.9,73.6c-2.9,0-5.4-0.6-7.5-1.8c-2.1-1.2-3.8-2.9-5-5.1c-1.2-2.2-1.8-4.7-1.8-7.6c0-3.1,0.6-5.8,1.8-8
				c1.2-2.2,2.8-3.9,4.8-5.1c2-1.2,4-1.8,6.3-1.8c1.6,0,3.2,0.3,4.7,0.9c1.5,0.6,2.9,1.4,4,2.5c1.2,1.1,2.1,2.5,2.9,4.1
				c0.7,1.6,1.1,3.5,1.2,5.6c0,0.4-0.2,0.8-0.5,1.1s-0.7,0.5-1.2,0.5h-22.1l-0.7-3h21.7l-0.7,0.7v-1.1c-0.1-1.7-0.7-3.2-1.7-4.4
				s-2.1-2.1-3.4-2.8c-1.3-0.6-2.7-1-4.2-1c-1.1,0-2.2,0.2-3.4,0.7c-1.2,0.4-2.2,1.1-3.1,2.1c-0.9,0.9-1.7,2.1-2.3,3.6
				c-0.6,1.5-0.9,3.2-0.9,5.2c0,2.2,0.4,4.1,1.3,5.9c0.9,1.8,2.1,3.2,3.8,4.2c1.7,1,3.7,1.5,6,1.5c1.2,0,2.4-0.2,3.4-0.6
				s1.9-0.9,2.7-1.5c0.8-0.6,1.4-1.2,2-1.9c0.4-0.3,0.8-0.5,1.2-0.5s0.7,0.1,1,0.4s0.4,0.6,0.4,1s-0.2,0.8-0.6,1.2
				c-1.1,1.3-2.5,2.5-4.3,3.4C271.9,73.2,270,73.6,267.9,73.6z"/>
		</g>
	</g>
	<g>
		<g>
			<path class="st2" d="M55.3,102.8C29.2,102.8,8,81.6,8,55.5S29.2,8.1,55.3,8.1s47.3,21.2,47.3,47.3S81.4,102.8,55.3,102.8z
				 M55.3,9.2C29.7,9.2,9,29.9,9,55.5s20.8,46.3,46.3,46.3s46.3-20.8,46.3-46.3S80.8,9.2,55.3,9.2z"/>
		</g>
		<g>
			<g>
				<defs>
					<circle id="SVGID_2_" cx="55.3" cy="55.5" r="46.8"/>
				</defs>
				<clipPath id="SVGID_3_">
					<use xlink:href="#SVGID_2_"  style="overflow:visible;"/>
				</clipPath>
				<g class="st3">
					<g>
						<path class="st2" d="M46.7,70.9c-0.3,0.2-0.5,0.2-0.8,0.2c-0.3-0.1-0.5-0.2-0.7-0.4c-0.3-0.3-0.3-0.6-0.3-0.9
							c0.1-0.3,0.2-0.7,0.4-1.2l9.9-20.7l0.1,0.1l-23.2,3.1c-0.3,0-0.6,0-0.8,0c-0.2-0.1-0.5-0.2-0.7-0.5c-0.2-0.2-0.2-0.5-0.2-0.8
							c0.1-0.3,0.3-0.5,0.6-0.7c0.1-0.1,0.3-0.2,0.4-0.2c0.2,0,0.3-0.1,0.5-0.1L55,45.9c0.5-0.1,0.9-0.1,1.3,0
							c0.4,0.1,0.7,0.3,0.9,0.6s0.4,0.7,0.4,1s-0.1,0.7-0.3,1.1L47.3,70c-0.1,0.2-0.2,0.3-0.3,0.5C46.9,70.7,46.8,70.8,46.7,70.9z"
							/>
					</g>
					<path class="st2" d="M19.4,68.6c2.9,0,5.7,0.1,8.6,0c2.8-0.1,4.7,1.3,6,3.6c1.3,2.2,2.2,4.7,3.1,7.1c0.7,1.8,1.5,3.6,2.8,5.2
						c1.7,2.1,5.4,3.3,7.8,0.1c1.6-2.2,2.8-4.6,3.8-7c1.8-4.6,3.5-9.3,5.4-13.9c1.3-3.2,2.6-6.3,4.7-9.1c1.1-1.5,2.4-2.8,4.2-3.4
						c2.9-1,5.4-0.1,7.5,1.9c2.3,2.1,3.8,4.9,5.1,7.7c1.1,2.4,2.1,4.9,3.6,7c0.5,0.7,1.1,1,1.9,0.9c5.5,0,11,0,16.5,0
						c0.7,0,1.4-0.1,1.6,0.9c0.1,0.6-0.4,0.9-1.6,0.9c-5.3,0-10.6-0.1-16,0c-2.1,0-3.5-0.9-4.5-2.6c-1.2-2.1-2.2-4.3-3.2-6.4
						c-1.2-2.6-2.5-5.2-4.7-7.2c-2.4-2.3-5.8-2.7-8.3,0.2c-2,2.2-3.3,4.9-4.5,7.6c-2,4.6-3.5,9.4-5.4,14c-1.1,2.9-2.3,5.7-4,8.3
						c-0.9,1.4-2,2.8-3.7,3.4c-2.4,1-4.6,0.4-6.6-1.2c-2.1-1.7-3.1-4-4.1-6.4c-1-2.3-1.7-4.8-3-7.1c-0.3-0.5-0.6-1-1-1.4
						c-0.8-1-1.8-1.5-3.2-1.5c-6.1,0-12.3,0-18.4,0c-1.2,0-1.6-0.3-1.6-0.9s0.5-0.9,1.6-0.9C13.2,68.6,16.3,68.6,19.4,68.6z"/>
				</g>
			</g>
		</g>
	</g>
</g>
</svg>
